<svg xmlns="http://www.w3.org/2000/svg" width="279.203" height="74.023"><path d="M187.062 63.568h-2.051l-1.616-4.7h-5.964l-1.438 4.7h-1.683l5.223-16.072h2.277zm-4.1-6.206l-2.49-7.724-2.486 7.724zm11.067 6.534a5.721 5.721 0 01-4.857-2.363 9.576 9.576 0 01-1.76-5.886 9.732 9.732 0 011.825-6.115 5.75 5.75 0 014.78-2.368 5.858 5.858 0 014.74 2.262 9.128 9.128 0 011.854 5.974 10.328 10.328 0 01-1.39 5.409 5.879 5.879 0 01-3.556 2.887l-.012.222q0 1.767 2.143 1.767a10.163 10.163 0 001.849-.153v1.613a5.6 5.6 0 01-1.661.247 4.522 4.522 0 01-2.844-.78 3.555 3.555 0 01-1.111-2.716zm-.012-1.637a3.694 3.694 0 003.3-1.921 9.28 9.28 0 001.189-4.95 8.257 8.257 0 00-1.23-4.843 3.821 3.821 0 00-3.267-1.733 3.728 3.728 0 00-3.273 1.874 8.891 8.891 0 00-1.213 4.9 8.6 8.6 0 001.224 4.814 3.753 3.753 0 003.269 1.861zm18.471-14.763h1.672v10.5q0 3.158-1.548 4.531a5.888 5.888 0 01-4.056 1.373 5.454 5.454 0 01-4.133-1.414 6.357 6.357 0 01-1.343-4.49v-10.5h2.014v10.5a5.736 5.736 0 00.436 2.64 2.61 2.61 0 001.319 1.131 4.793 4.793 0 001.849.365 3.8 3.8 0 002.826-.978 4.371 4.371 0 00.965-3.158zm15.488 16.072h-2.056l-1.616-4.7h-5.964l-1.438 4.7h-1.683l5.223-16.072h2.278zm-4.1-6.206l-2.49-7.724-2.486 7.724zm17.437 6.206h-2.11l-2.964-6.959h-4.6v6.959h-1.884V47.496h6.334a4.837 4.837 0 013.821 1.407 4.558 4.558 0 011.242 3.079 4.774 4.774 0 01-.695 2.461 3.887 3.887 0 01-2.3 1.684zm-9.678-8.6h4.2a3.232 3.232 0 002.479-.877 3.034 3.034 0 00.819-2.149 2.412 2.412 0 00-.865-1.978 3.341 3.341 0 00-2.184-.707h-4.451zm14.309 8.6h-2.013V47.496h2.013zm12.739-16.072h1.672v10.5q0 3.158-1.548 4.531a5.889 5.889 0 01-4.056 1.373 5.455 5.455 0 01-4.133-1.414 6.358 6.358 0 01-1.343-4.49v-10.5h2.014v10.5a5.731 5.731 0 00.436 2.64 2.609 2.609 0 001.319 1.131 4.794 4.794 0 001.849.365 3.8 3.8 0 002.826-.978 4.37 4.37 0 00.966-3.158zm20.519 16.072h-1.958V49.533l-5.218 14.036h-1.366l-5.274-14.036v14.036h-1.707V47.496h2.98l4.856 12.855 4.74-12.855h2.943zm-92.967-37.127h-1.954l-8.313-14.012.024 1.06q.035.6.035 1.013v11.939h-1.625V10.369h2.52l7.771 13.1-.023-1.118q-.024-.659-.024-1.165V10.369h1.589zm14.525 0h-2.056l-1.616-4.7h-5.964l-1.438 4.7h-1.684l5.223-16.072h2.278zm-4.1-6.205l-2.49-7.724-2.486 7.724zm9.226 6.205h-2.014V12.133h-4.6v-1.766h11.234v1.766h-4.616zm8.476 0h-2.013V10.369h2.013zm9.212.33a5.606 5.606 0 01-4.828-2.41 9.86 9.86 0 01-1.731-5.909 9.67 9.67 0 011.813-6.033 6.047 6.047 0 019.584-.041 9.383 9.383 0 011.8 5.9 10.242 10.242 0 01-1.749 5.956 5.607 5.607 0 01-4.889 2.537zm.047-1.637a3.694 3.694 0 003.3-1.921 9.279 9.279 0 001.189-4.949 8.258 8.258 0 00-1.231-4.844 3.821 3.821 0 00-3.267-1.733 3.729 3.729 0 00-3.274 1.874 8.894 8.894 0 00-1.212 4.9 8.592 8.592 0 001.224 4.814 3.753 3.753 0 003.271 1.859zm21.06 1.307h-1.954l-8.313-14.012.024 1.06q.035.6.035 1.013v11.939h-1.625V10.369h2.519l7.771 13.1-.023-1.118q-.024-.659-.023-1.165V10.369h1.589zm14.529 0h-2.052l-1.616-4.7h-5.965l-1.437 4.7h-1.682l5.223-16.072h2.278zm-4.1-6.205l-2.49-7.724-2.486 7.724zm15.369 4.439v1.766h-9.49V10.369h2.06v14.306zM189.92 45.004h-1.958V30.969l-5.217 14.036h-1.366l-5.274-14.036v14.036h-1.708V28.932h2.98l4.856 12.855 4.74-12.855h2.943zm14.531 0h-2.056l-1.616-4.7h-5.964l-1.438 4.7h-1.684l5.223-16.072h2.278zm-4.1-6.206l-2.49-7.724-2.486 7.724zm17.434 6.206h-2.11l-2.964-6.959h-4.6v6.959h-1.884V28.932h6.335a4.837 4.837 0 013.821 1.407 4.558 4.558 0 011.242 3.079 4.774 4.774 0 01-.695 2.461 3.887 3.887 0 01-2.3 1.684zm-9.678-8.6h4.2a3.232 3.232 0 002.479-.877 3.035 3.035 0 00.819-2.149 2.412 2.412 0 00-.865-1.978 3.342 3.342 0 00-2.184-.706h-4.451zm14.308 8.6h-2.013V28.932h2.013zm15.292 0h-1.954l-8.313-14.012.023 1.06q.036.6.036 1.013v11.939h-1.625V28.932h2.519l7.771 13.1-.023-1.118q-.024-.659-.024-1.165V28.932h1.589zm13.874-1.766v1.766h-10.4V28.932h10.173v1.766h-8.16v5.11h6.476v1.637h-6.476v5.793zM163.979 0h3.195v74.023h-3.195zM12.672 43.376v18.211a1.9 1.9 0 01-1.9 1.973h-8.8a1.959 1.959 0 01-1.973-1.973v-49.17a1.96 1.96 0 011.973-1.973h11.686a3.419 3.419 0 012.883 1.746c5.084 10.092 10.244 19.8 15.1 31.187l-.3-13.81v-17.15a1.959 1.959 0 011.973-1.973h8.796a1.9 1.9 0 011.9 1.973v49.17a1.9 1.9 0 01-1.9 1.973H31.566a3.421 3.421 0 01-2.883-1.745C18.363 42.086 15.025 35.181 12.521 29.49zm49.718 1.821l-.379 16.39a2.008 2.008 0 01-1.973 1.973H51.16a1.9 1.9 0 01-1.9-1.973l1.973-49.17a2.008 2.008 0 011.973-1.973H66.94a2.575 2.575 0 012.428 1.9l3.339 12.976 5.084 19.8 5.387-19.8 3.491-12.976a2.531 2.531 0 012.5-1.9h13.438a2.024 2.024 0 012.049 1.973l1.518 49.17a1.882 1.882 0 01-1.821 1.973h-9.409a2.024 2.024 0 01-2.049-1.973l-.3-16.39-.228-15.859-9.333 32.325a2.6 2.6 0 01-2.5 1.9h-7.057a2.444 2.444 0 01-2.428-1.9l-7.816-32.325zm82.938 18.364a2.423 2.423 0 01-2.352-1.9l-2.58-9.789h-13.507c-.835 3.263-1.593 6.526-2.428 9.789a2.507 2.507 0 01-2.428 1.9h-10.244a1.47 1.47 0 01-1.442-1.9l14.114-49.4a2.531 2.531 0 012.5-1.9h13.81a2.6 2.6 0 012.5 1.9l14.189 49.4a1.458 1.458 0 01-1.366 1.9zm-12.824-37.788l-3.491 15.707h9.257l-3.718-15.707-.911-4.553h-.152z" fill="#fff"/></svg>